# AST/ASF file generated using VICON BodyLanguage
# -----------------------------------------------
:version 1.10
:name VICON
:units
  mass 1.0
  length 0.45
  angle deg
:documentation
   .ast/.asf automatically generated from VICON data using
   VICON BodyBuilder and BodyLanguage model FoxedUp or BRILLIANT.MOD
:root
   order TX TY TZ RX RY RZ
   axis XYZ
   position 0 0 0  
   orientation 0 0 0 
:bonedata
  begin
     id 1 
     name lhipjoint
     direction 0.660183 -0.676772 0.325788 
     length 2.75133 
     axis 0 0 0  XYZ
  end
  begin
     id 2 
     name lfemur
     direction 0.34202 -0.939693 0  
     length 7.70317  
     axis 0 0 20  XYZ
    dof rx ry rz
    limits (-160.0 20.0)
           (-70.0 70.0)
           (-60.0 70.0)
  end
  begin
     id 3 
     name ltibia
     direction 0.342105 -0.939662 0   
     length 7.18701   
     axis 0 0 20   XYZ
    dof rx
    limits (-10.0 170.0)
  end
  begin
     id 4 
     name lfoot
     direction 0.14163 -0.389126 0.910232   
     length 2.41719   
     axis -90 7.62852e-016 20   XYZ
    dof rx rz
    limits (-45.0 90.0)
           (-70.0 20.0)
  end
  begin
     id 5 
     name ltoes
     direction 1.53533e-011 -4.21926e-011 1   
     length 1.18611   
     axis -90 7.62852e-016 20   XYZ
    dof rx
    limits (-90.0 20.0)
  end
  begin
     id 6 
     name rhipjoint
     direction -0.6658 -0.67229 0.323631   
     length 2.76968  
     axis 0 0 0  XYZ 
  end
  begin
     id 7 
     name rfemur
     direction -0.34202 -0.939693 0   
     length 7.92547   
     axis 0 0 -20   XYZ
    dof rx ry rz
    limits (-160.0 20.0)
           (-70.0 70.0)
           (-70.0 60.0)
  end
  begin
     id 8 
     name rtibia
     direction -0.342022 -0.939692 0   
     length 7.22641   
     axis 0 0 -20   XYZ
    dof rx
    limits (-10.0 170.0)
 end
 begin
     id 9 
     name rfoot
     direction -0.105675 -0.29034 0.951071   
     length 2.48149  
     axis -90 -7.62852e-016 -20   XYZ
    dof rx rz
    limits (-45.0 90.0)
           (-20.0 70.0)
  end
  begin
     id 10 
     name rtoes
     direction -1.5349e-011 -4.21859e-011 1   
     length 1.23343   
     axis -90 -7.62852e-016 -20   XYZ
    dof rx
    limits (-90.0 20.0)
  end
  begin
     id 11 
     name lowerback
     direction 0.0104173 0.993624 -0.112266   
     length 2.00527   
     axis 0 0 0   XYZ
    dof rx ry rz
    limits (-20.0 45.0)
           (-30.0 30.0)
           (-30.0 30.0)
  end
  begin
     id 12 
     name upperback
     direction 0.00733149 0.999856 -0.0152913   
     length 2.01385   
     axis 0 0 0   XYZ
    dof rx ry rz
    limits (-20.0 45.0)
           (-30.0 30.0)
           (-30.0 30.0)
  end
  begin
     id 13 
     name thorax
     direction 0.0026304 0.999318 0.036841   
     length 2.03734   
     axis 0 0 0   XYZ
    dof rx ry rz
    limits (-20.0 45.0)
           (-30.0 30.0)
           (-30.0 30.0)
  end
  begin
     id 14 
     name lowerneck
     direction 0.0293154 0.998757 0.0403082   
     length 1.65303   
     axis 0 0 0   XYZ
    dof rx ry rz
    limits (-20.0 45.0)
           (-30.0 30.0)
           (-30.0 30.0)
  end
  begin
     id 15 
     name upperneck
     direction -0.0376619 0.998184 -0.0470083   
     length 1.60926   
     axis 0 0 0   XYZ
    dof rx ry rz
    limits (-20.0 45.0)
           (-30.0 30.0)
           (-30.0 30.0)
  end
  begin
     id 16
     name head
     direction -0.0170133 0.999635 -0.0209778  
     length 1.73625  
     axis 0 0 0   XYZ
    dof rx ry rz
    limits (-20.0 45.0)
           (-30.0 30.0)
           (-30.0 30.0)
  end
  begin
     id 17 
     name lclavicle
     direction 0.919857 0.39181 -0.0186333  
     length 3.75313  
     axis 0 0 0   XYZ
    dof ry rz
    limits (-20.0 10.0)
           (0.0 20.0)
  end
  begin
     id 18 
     name lhumerus
     direction 1 -4.48988e-011 1.44029e-027   
     length 5.49313   
     axis 180 -30 -90   XYZ
    dof rx ry rz
    limits (-60.0 90.0)
           (-90.0 90.0)
           (-90.0 90.0)
  end
  begin
     id 19
     name lradius
     direction 1 -4.48924e-011 7.46281e-027   
     length 3.29037   
     axis 180 -30 -90   XYZ
    dof rx
    limits (-10.0 170.0)
  end
  begin
     id 20
     name lwrist
     direction 1 -4.48955e-011 2.19879e-026   
     length 1.64519   
     axis -1.34358e-014 90 90   XYZ
    dof ry
    limits (-180.0 0.0)
 end
  begin
     id 21 
     name lhand
     direction 1 -4.48978e-011 4.39747e-026   
     length 0.729656   
     axis -2.80598e-014 90 90   XYZ
    dof rx rz
    limits (-90.0 90.0)
           (-45.0 45.0)
  end
  begin
     id 22 
     name lfingers
     direction 1 -4.49071e-011 8.79411e-026   
     length 0.588268   
     axis -5.61193e-014 90 90   XYZ
    dof rx
    limits (0.0 90.0)
  end
  begin
     id 23
     name lthumb
     direction 0.707107 -6.34817e-011 0.707107   
     length 0.844638   
     axis -90 45 -9.86923e-015   XYZ
    dof rx rz
    limits (-45.0 45.0)
           (-45.0 45.0)
  end
  begin
     id 24 
     name rclavicle
     direction -0.919898 0.388279 0.0550233   
     length 3.7171  
     axis 0 0 0   XYZ 
    dof ry rz
    limits (-10.0 20.0)
           (-20.0 0.0)
  end
  begin
     id 25 
     name rhumerus
     direction -1 -4.48968e-011 9.98372e-028  
     length 5.23684   
     axis 180 30 90   XYZ
    dof rx ry rz
    limits (-90.0 60.0)
           (-90.0 90.0)
           (-90.0 90.0)
  end
  begin
     id 26 
     name rradius
     direction -1 -4.48956e-011 1.01023e-026   
     length 3.38251   
     axis 180 30 90   XYZ
    dof rx
    limits (-10.0 170.0)
  end
  begin
     id 27 
     name rwrist
     direction -1 -4.4892e-011 2.19886e-026   
     length 1.69126   
     axis -1.34358e-014 -90 -90   XYZ
    dof ry
    limits (-180.0 0.0)
  end
  begin
     id 28
     name rhand
     direction -1 -4.49024e-011 4.39727e-026   
     length 0.691454   
     axis -2.80598e-014 -90 -90   XYZ
    dof rx rz
    limits (-90.0 90.0)
           (-45.0 45.0)
  end
  begin
     id 29
     name rfingers
     direction -1 -4.49097e-011 8.79388e-026   
     length 0.557468   
     axis -5.61193e-014 -90 -90   XYZ
    dof rx
    limits (0.0 90.0)
  end
  begin
     id 30
     name rthumb
     direction -0.707107 -6.34938e-011 0.707107   
     length 0.800416   
     axis -90 -45 9.86923e-015   XYZ
    dof rx rz
    limits (-45.0 45.0)
           (-45.0 45.0)
  end
:hierarchy
  begin
    root lhipjoint rhipjoint lowerback
    lhipjoint lfemur
    lfemur ltibia
    ltibia lfoot
    lfoot ltoes
    rhipjoint rfemur
    rfemur rtibia
    rtibia rfoot
    rfoot rtoes
    lowerback upperback
    upperback thorax
    thorax lowerneck lclavicle rclavicle
    lowerneck upperneck
    upperneck head
    lclavicle lhumerus
    lhumerus lradius
    lradius lwrist
    lwrist lhand lthumb
    lhand lfingers
    rclavicle rhumerus
    rhumerus rradius
    rradius rwrist
    rwrist rhand rthumb
    rhand rfingers
  end

#!OML:ASF H:\BabyWalks\Project 1\Capture day 1\Session 1\baby.ASF
:FULLY-SPECIFIED
:DEGREES
309
root -7.4089 17.4615 -1.98449 128.24 -83.0283 -134.063
lowerback 14.276 1.12337 4.93161
upperback 6.5639 1.73675 -0.683281
thorax -0.876065 0.825973 -3.74803
lowerneck -0.723257 11.5803 14.7067
upperneck 31.2047 18.594 -17.7969
head 14.0239 7.84171 -7.32055
rclavicle -1.59028e-014 5.56597e-015
rhumerus -17.9796 72.2783 -44.0198
rradius 108.002
rwrist 26.2529
rhand 37.0941 -32.7168
rfingers 7.12502
rthumb 59.9458 -46.5539
lclavicle -1.59028e-014 5.56597e-015
lhumerus -20.9086 -27.8479 60.495
lradius 107.512
lwrist -5.57636
lhand -16.0926 -0.708163
lfingers 7.12502
lthumb 10.1108 29.0289
rfemur -5.48581 -0.819808 31.5455
rtibia 31.084
rfoot -18.5837 -9.07527
rtoes 12.6674
lfemur -11.8778 5.15223 -7.45682
ltibia 50.9288
lfoot -16.0236 14.428
ltoes -18.87
310
root -7.37357 17.4647 -2.01613 123.704 -83.2819 -129.254
lowerback 14.5846 1.16323 5.17288
upperback 6.52901 1.83853 -0.608321
thorax -1.05907 0.874235 -3.82981
lowerneck -0.902904 11.6312 14.8792
upperneck 30.3961 18.7125 -18.1441
head 13.7894 7.92334 -7.40488
rclavicle -8.74653e-015 -1.11319e-014
rhumerus -22.113 72.0739 -48.2127
rradius 106.504
rwrist 27.4938
rhand 35.1307 -32.6637
rfingers 7.12502
rthumb 58.2509 -48.1578
lclavicle -8.74653e-015 -1.11319e-014
lhumerus -20.8076 -28.5933 60.7165
lradius 106.367
lwrist -9.25823
lhand -20.0696 -3.56334
lfingers 7.12502
lthumb 6.27258 26.3238
rfemur -5.83135 -1.26541 31.8023
rtibia 30.8836
rfoot -18.4188 -9.16531
rtoes 12.8305
lfemur -13.6012 5.35017 -7.03824
ltibia 52.8605
lfoot -14.9881 13.206
ltoes -18.1032
311
root -7.33845 17.4671 -2.04679 118.306 -83.4848 -123.574
lowerback 14.8788 1.18644 5.46476
upperback 6.48641 1.92777 -0.518674
thorax -1.2413 0.916599 -3.92336
lowerneck -1.06246 11.6664 15.0437
upperneck 29.5624 18.7943 -18.4733
head 13.5328 7.99123 -7.48557
rclavicle 1.74931e-014 -4.77083e-015
rhumerus -26.1857 71.3956 -52.3707
rradius 104.948
rwrist 28.5146
rhand 32.867 -32.5024
rfingers 7.12502
rthumb 56.2644 -49.6852
lclavicle 1.74931e-014 -4.77083e-015
lhumerus -20.7394 -29.2409 60.9888
lradius 105.258
lwrist -12.1064
lhand -23.617 -5.96683
lfingers 7.12502
lthumb 2.84727 23.9939
rfemur -6.1844 -1.71725 32.0983
rtibia 30.6699
rfoot -18.2495 -9.29868
rtoes 12.9859
lfemur -15.4146 5.50688 -6.6223
ltibia 54.9338
lfoot -13.9344 11.9224
ltoes -16.996
312
root -7.30456 17.4742 -2.07716 112.234 -83.6178 -117.225
lowerback 15.1566 1.19522 5.79354
upperback 6.44091 2.00527 -0.419573
thorax -1.41704 0.953266 -4.02615
lowerneck -1.1982 11.6871 15.2077
upperneck 28.7048 18.8419 -18.7901
head 13.2568 8.04676 -7.56673
rclavicle -2.70347e-014 2.78299e-015
rhumerus -29.8723 70.2823 -56.1712
rradius 103.325
rwrist 29.4
rhand 30.2508 -32.24
rfingers 7.12502
rthumb 53.9323 -51.1237
lclavicle -2.70347e-014 2.78299e-015
lhumerus -20.7232 -29.8144 61.3178
lradius 104.221
lwrist -14.0156
lhand -26.6325 -7.89009
lfingers 7.12502
lthumb -0.0651723 22.0896
rfemur -6.52214 -2.15632 32.4215
rtibia 30.4425
rfoot -18.0827 -9.48155
rtoes 13.1261
lfemur -17.2633 5.63918 -6.22324
ltibia 57.1268
lfoot -12.9384 10.56
ltoes -15.7801
313
root -7.27167 17.476 -2.10562 105.725 -83.6752 -110.453
lowerback 15.4185 1.18945 6.14714
upperback 6.39535 2.06885 -0.319336
thorax -1.58401 0.983051 -4.13954
lowerneck -1.30101 11.6929 15.3813
upperneck 27.825 18.8564 -19.1
head 12.9631 8.09119 -7.6533
rclavicle 2.34566e-014 3.18055e-015
rhumerus -32.9892 68.7878 -59.4382
rradius 101.631
rwrist 30.2064
rhand 27.2358 -31.9171
rfingers 7.12502
rthumb 51.2055 -52.483
lclavicle 2.34566e-014 3.18055e-015
lhumerus -20.7659 -30.331 61.7057
lradius 103.259
lwrist -15.0066
lhand -29.0929 -9.33965
lfingers 7.12502
lthumb -2.4414 20.6261
rfemur -6.85668 -2.57318 32.753
rtibia 30.2293
rfoot -17.924 -9.7135
rtoes 13.2609
lfemur -19.1499 5.75486 -5.86096
ltibia 59.4707
lfoot -12.0553 9.10224
ltoes -14.6013
